# xmcd
#
# Track frame offsets: 
#        150
#        12030
#        24369
#        34912
#        45092
#        55795
#        69262
#        79585
#        92985
#
# Disc length: 1364 seconds
#
# Revision: 0
# Processed by: cddbd v1.4PL0 Copyright (c) Steve Scherf et al.
# Submitted via: ExactAudioCopy v0.90b4
#
DISCID=5b055209
DTITLE=Percy Sledge - Country
DYEAR=1995
DGENRE=
TTITLE0=Today I Started Loving You Again
TTITLE1=He'll Have To Go
TTITLE2=Mama Tried
TTITLE3=Kiss An Angel Good Morning
TTITLE4=Hey Good Lookin'
TTITLE5=I Still Miss Someone
TTITLE6=Wabash Cannonball
TTITLE7=She Thinks I Still Care
TTITLE8=If You've Got The Money Honey
EXTD=
EXTT0=
EXTT1=
EXTT2=
EXTT3=
EXTT4=
EXTT5=
EXTT6=
EXTT7=
EXTT8=
PLAYORDER=
